<?xml version="1.0" encoding="utf-8"?>
<!-- Generator: Adobe Illustrator 24.1.2, SVG Export Plug-In . SVG Version: 6.00 Build 0)  -->
<svg version="1.1" id="Capa_1" xmlns="http://www.w3.org/2000/svg" xmlns:xlink="http://www.w3.org/1999/xlink" x="0px" y="0px"
	 viewBox="0 0 202.8 50.8" style="enable-background:new 0 0 202.8 50.8;" xml:space="preserve">
<style type="text/css">
	.st0{fill-rule:evenodd;clip-rule:evenodd;}
	.st1{fill-rule:evenodd;clip-rule:evenodd;fill:#86AF49;}
</style>
<path class="st0" d="M108.6,39.4c-0.5,0.4-1,0.6-1.6,0.5c-0.7-0.1-1.1-0.4-1.4-1c-0.5-0.9-1.6-1.1-2.5-0.7c-0.9,0.5-1.1,1.6-0.7,2.5
	c0.9,1.5,2.3,2.5,4,2.8c1.8,0.3,3.4-0.2,4.7-1.4c1.3-1.2,2-2.8,1.8-4.6c-0.1-1.8-1-3.3-2.4-4.3l-3.8-2.7c-0.4-0.4-0.7-0.8-0.8-1.4
	c0-0.6,0.2-1.1,0.6-1.5c0.4-0.4,1-0.6,1.5-0.4c0.6,0.1,1,0.4,1.3,0.9c0.5,0.9,1.6,1.1,2.5,0.7c0.9-0.5,1.2-1.6,0.7-2.5
	c-0.9-1.5-2.3-2.4-3.9-2.7c-1.7-0.3-3.3,0.2-4.6,1.3c-1.3,1.1-1.9,2.8-1.8,4.4c0.1,1.7,1,3.2,2.3,4.2l3.8,2.7
	c0.5,0.3,0.8,0.8,0.8,1.5C109.2,38.4,109,39,108.6,39.4z"/>
<path class="st0" d="M121.1,27.4h1.4v10.2c0,3.3,2.7,5.9,5.9,5.9c1,0,1.8-0.8,1.8-1.8c0-1-0.8-1.8-1.8-1.8c-1.3,0-2.2-1-2.2-2.2
	V27.4h2.2c1,0,1.8-0.8,1.8-1.8c0-1-0.8-1.8-1.8-1.8h-2.2v-6.5c0-1-0.8-1.8-1.8-1.8c-1,0-1.8,0.8-1.8,1.8v6.5h-1.4
	c-1,0-1.8,0.8-1.8,1.8C119.2,26.6,120,27.4,121.1,27.4z"/>
<path class="st0" d="M143.3,43.4h4.1c1,0,1.8-0.8,1.8-1.8V25.4c0-1-0.8-1.8-1.8-1.8c-1,0-1.8,0.8-1.8,1.8v14.4h-2.2
	c-1.3,0-2.2-1-2.2-2.3V25.4c0-1-0.8-1.8-1.8-1.8c-1,0-1.8,0.8-1.8,1.8v12.1C137.4,40.8,140,43.4,143.3,43.4z"/>
<path class="st0" d="M163.7,27.4h2.2v12.3h-2.2c-1.3,0-2.2-1-2.2-2.2v-7.8C161.5,28.4,162.4,27.4,163.7,27.4z M163.7,43.4h4.1
	c1,0,1.8-0.8,1.8-1.8V17.3c0-1-0.8-1.8-1.8-1.8c-1,0-1.8,0.8-1.8,1.8v6.5h-2.2c-3.3,0-5.9,2.7-5.9,5.9v7.8
	C157.8,40.8,160.4,43.4,163.7,43.4z"/>
<path class="st0" d="M182.4,41.7V25.4c0-1-0.8-1.8-1.8-1.8c-1,0-1.8,0.8-1.8,1.8v16.3c0,1,0.8,1.8,1.8,1.8
	C181.6,43.6,182.4,42.8,182.4,41.7z M180.5,21.5c1.3,0,2.2-1,2.2-2.2c0-1.3-1-2.2-2.2-2.2c-1.3,0-2.2,1-2.2,2.2
	C178.3,20.6,179.3,21.5,180.5,21.5z"/>
<path class="st0" d="M196.9,27.2c1.3,0,2.2,1,2.2,2.3v8.2c0,1.3-1,2.3-2.2,2.3c-1.3,0-2.2-1-2.2-2.3v-8.2
	C194.6,28.2,195.6,27.2,196.9,27.2z M196.9,43.6c3.3,0,5.9-2.7,5.9-5.9v-8.2c0-3.3-2.7-5.9-5.9-5.9c-3.3,0-5.9,2.7-5.9,5.9v8.2
	C191,40.9,193.6,43.6,196.9,43.6z"/>
<path class="st1" d="M13.4,50.7C-0.1,50.2-1,34.9,0.6,27.5C5,7.1,16.8-0.2,23,0c2.1,0.1,6.5,0.9,8.6,5.2c1.3,2.7,2.6,7.1,1.9,11.7
	c-0.1,0.7-0.4,2.5-2,2.7c-0.6,0.1-1.2-0.2-1.7-0.6c-0.7-0.9-0.2-2.3-0.3-3.5c0-1.2,0.5-5.6-1.9-9.3C24.4,1.4,15,3.8,7.4,18.6
	C5.7,21.8-2.8,46,14.1,47c4.7,0.3,9.5-4,10.6-5.2c2.4-3.3,2.3-6.6-0.8-7.4c-1.8-0.4-3.5-0.9-4.6,0.8c-0.8,1.2-0.5,2.4,0.1,3.7
	c0.3,0.6,0.5,1,0.9,1.5c0.2,0.3,0.3,0.5,0.3,0.9c0,0.7-0.4,1.2-1,1.4c-0.6,0.2-1.3-0.1-1.7-0.7c-0.2-0.3-0.2-0.6-0.2-0.9
	c0.2-0.7,0.2-1.1,0-1.7c-0.3-1.4-1.1-2.7-2.3-2.8c-1,0-2.2,0.9-2.9,2.1c-0.3,0.6-0.5,1-0.5,1.6c-0.1,0.4-0.2,0.6-0.4,0.8
	c-0.5,0.4-1.2,0.5-1.8,0.1c-0.5-0.4-0.8-1.1-0.5-1.7c0.1-0.3,0.3-0.5,0.6-0.7c0.6-0.3,0.9-0.6,1.3-1.1c0.9-1,1.4-2.8,1-3.3
	c-0.5-0.7-2-1.2-3.3-1c-0.7,0.1-1,0.3-1.6,0.7c-0.3,0.2-0.6,0.2-0.9,0.2c-0.7-0.1-1.2-0.6-1.2-1.3c-0.1-0.6,0.3-1.3,1-1.5
	c0.3-0.1,0.6-0.1,0.9,0c0.6,0.2,1,0.3,1.7,0.3c1.4,0,2.9-0.5,3.2-1.4c0.4-0.9-0.3-2.3-1.3-3.2c-0.5-0.5-0.8-0.7-1.5-0.9
	c-0.3-0.1-0.5-0.3-0.7-0.6c-0.3-0.6-0.1-1.3,0.3-1.7c0.5-0.4,1.2-0.5,1.8-0.1c0.3,0.2,0.4,0.4,0.5,0.8c0.2,0.7,0.3,1,0.7,1.6
	c0.8,1.2,2.2,2,3.2,1.8c1.1-0.3,2-1.4,2.5-2.8c0.2-0.6,0.3-1,0.2-1.7c0-0.4,0.1-0.6,0.3-0.9c0.4-0.5,1.1-0.7,1.7-0.4
	c0.6,0.3,0.9,0.9,0.8,1.6c-0.1,0.3-0.2,0.6-0.5,0.8c-0.5,0.4-0.8,0.7-1.1,1.3c-0.6,1-1,1.9-0.6,3c0.6,2.1,4.4,1.8,4.4,1.8
	c3.7,0,5.1,0.5,6.5,1.7c1.4,1.2,2,3.4,1.3,6.4C29.9,41.6,25.1,51.2,13.4,50.7z"/>
<path class="st1" d="M87.2,26.3c-1.4,0.4-2.6,2.5-2.6,2.5c-0.6,1.1-1.7,3.2-2,4.4c-0.6,2-0.7,3.8-0.4,5.2c0.4,1.3,1.2,2.1,2.5,2.4
	c1.3,0.3,4.2,0.4,6.5-5.6c0,0,0.7-2,0.7-3.2c0-2.1,0.2-3.3-1.6-5.1C89.8,26.4,88.4,26,87.2,26.3z M36,33.3c0.9,0.5,1.8,0.6,2.7,0.3
	c1.1-0.4,2.1-1.2,3-2.5c0.8-1.2,1.2-2.4,1.1-3.5c0-0.9-0.5-1.5-1.3-1.8c-1-0.4-2,0.2-3.1,1.6C37.2,29,36.4,30.9,36,33.3z M94.6,33.9
	c-1.3,5.4-4.5,10.6-10.4,9.7c-2.5-0.4-4.2-2.4-4.9-4.9c-1.4,1.8-3,3.1-4.5,3.5c-3.2,0.8-5.8-1.9-8.8-4.6l0,3.9c0,0.4-0.1,0.7-0.4,1
	c-0.3,0.3-0.6,0.4-1,0.4c-0.6,0-1.1-0.1-1.3-0.4c-0.3-0.3-0.4-0.6-0.4-1l0-3.7c-0.8,1.4-1.8,2.5-2.8,3.4c-0.9,0.8-2.1,1.4-3.4,1.7
	c-1.3,0.3-2.5,0.3-3.8,0.1c-1.3-0.3-2.5-0.9-3.4-1.8c-0.6-0.6-1.1-1.2-1.4-2c-1.4,2.2-3.3,3.6-5.7,4.2c-3.5,0.8-6.1,0-7.8-2.5
	c-1.3-1.9-1.7-4.5-1.3-7.7c0.4-3,1.4-5.4,2.9-7.4c0.8-1.1,1.8-1.9,2.9-2.4c1.1-0.5,2.3-0.6,3.5-0.2c2.1,0.7,3.2,2.2,3.3,4.5
	c0.1,1.7-0.4,3.5-1.6,5.3c-1.2,1.9-2.7,3.1-4.5,3.7c-1.2,0.4-2.5,0.4-3.7,0.1c0.1,1.1,0.4,1.9,0.8,2.6c0.9,1.3,2.5,1.8,4.7,1.3
	c1.8-0.4,3.2-1.6,4.3-3.6c0.4-0.7,0.7-1.4,1-2.1c0.3-0.8,0.6-1.6,0.9-2.6c0.1-0.4,0.3-0.8,0.4-1.1c0.8-2.4,1.9-4.3,3.3-5.9
	c1.7-1.8,3.1-2.3,4.9-2.1c2.9,0.3,3.8,3.4,3.7,4.9c-0.1,0.7-0.2,1.2-1,1.5c-1.9,0.3-1.3-1.7-2.2-2.6c-1-1-2.3-0.6-3.2,0.3
	c-1.1,1.2-2,2.8-2.6,4.7c-0.7,1.9-0.8,3.7-0.5,5.3c0.3,1.5,1.3,2.5,3,2.9c4,0.8,8.3-4.7,9.5-8.7c0-1.5,0.9-6.5,1.2-9.1
	c0.3-2,1.2-12.3,4.8-11.6c2.8,0.6-1.2,7.3-2.4,20.2c0,0,2.9-0.9,4.9-2.5c2.5-2.1,4.3-4.9,6.1-3.7c2.5,1.7-5.1,8.4-10.2,9.7
	c2.3,2.3,4.8,4.9,7.1,4.3c1.3-0.3,3.5-1.7,5-4.6c0.1-0.5,0.2-1,0.4-1.5c0.7-2.4,1.8-4.5,3.3-6.4c1.7-2.1,4.4-3.8,7.3-2.8
	c1.5,0.5,2.6,1.2,3.2,2.4C94.7,27.2,95.4,30.7,94.6,33.9z"/>
</svg>
